<?xml version="1.0" encoding="utf-8" standalone="no"?>
<!DOCTYPE svg PUBLIC "-//W3C//DTD SVG 1.1//EN"
  "http://www.w3.org/Graphics/SVG/1.1/DTD/svg11.dtd">
<svg xmlns:xlink="http://www.w3.org/1999/xlink" width="720pt" height="576pt" viewBox="0 0 720 576" xmlns="http://www.w3.org/2000/svg" version="1.1">
 <metadata>
  <rdf:RDF xmlns:dc="http://purl.org/dc/elements/1.1/" xmlns:cc="http://creativecommons.org/ns#" xmlns:rdf="http://www.w3.org/1999/02/22-rdf-syntax-ns#">
   <cc:Work>
    <dc:type rdf:resource="http://purl.org/dc/dcmitype/StillImage"/>
    <dc:date>2025-07-12T12:06:52.929353</dc:date>
    <dc:format>image/svg+xml</dc:format>
    <dc:creator>
     <cc:Agent>
      <dc:title>Matplotlib v3.10.0, https://matplotlib.org/</dc:title>
     </cc:Agent>
    </dc:creator>
   </cc:Work>
  </rdf:RDF>
 </metadata>
 <defs>
  <style type="text/css">*{stroke-linejoin: round; stroke-linecap: butt}</style>
 </defs>
 <g id="figure_1">
  <g id="patch_1">
   <path d="M 0 576 
L 720 576 
L 720 0 
L 0 0 
z
" style="fill: #ffffff"/>
  </g>
  <g id="axes_1">
   <g id="patch_2">
    <path d="M 90 512.64 
L 648 512.64 
L 648 69.12 
L 90 69.12 
z
" style="fill: #ffffff"/>
   </g>
   <g id="patch_3">
    <path d="M 115.363636 512.64 
L 120.436364 512.64 
L 120.436364 90.24 
L 115.363636 90.24 
z
" clip-path="url(#p05935bf400)" style="fill: #1f77b4"/>
   </g>
   <g id="patch_4">
    <path d="M 120.436364 512.64 
L 125.509091 512.64 
L 125.509091 502.890944 
L 120.436364 502.890944 
z
" clip-path="url(#p05935bf400)" style="fill: #1f77b4"/>
   </g>
   <g id="patch_5">
    <path d="M 125.509091 512.64 
L 130.581818 512.64 
L 130.581818 500.480269 
L 125.509091 500.480269 
z
" clip-path="url(#p05935bf400)" style="fill: #1f77b4"/>
   </g>
   <g id="patch_6">
    <path d="M 130.581818 512.64 
L 135.654545 512.64 
L 135.654545 492.822828 
L 130.581818 492.822828 
z
" clip-path="url(#p05935bf400)" style="fill: #1f77b4"/>
   </g>
   <g id="patch_7">
    <path d="M 135.654545 512.64 
L 140.727273 512.64 
L 140.727273 487.540613 
L 135.654545 487.540613 
z
" clip-path="url(#p05935bf400)" style="fill: #1f77b4"/>
   </g>
   <g id="patch_8">
    <path d="M 140.727273 512.64 
L 145.8 512.64 
L 145.8 482.861066 
L 140.727273 482.861066 
z
" clip-path="url(#p05935bf400)" style="fill: #1f77b4"/>
   </g>
   <g id="patch_9">
    <path d="M 145.8 512.64 
L 150.872727 512.64 
L 150.872727 481.40757 
L 145.8 481.40757 
z
" clip-path="url(#p05935bf400)" style="fill: #1f77b4"/>
   </g>
   <g id="patch_10">
    <path d="M 150.872727 512.64 
L 155.945455 512.64 
L 155.945455 479.776819 
L 150.872727 479.776819 
z
" clip-path="url(#p05935bf400)" style="fill: #1f77b4"/>
   </g>
   <g id="patch_11">
    <path d="M 155.945455 512.64 
L 161.018182 512.64 
L 161.018182 479.422308 
L 155.945455 479.422308 
z
" clip-path="url(#p05935bf400)" style="fill: #1f77b4"/>
   </g>
   <g id="patch_12">
    <path d="M 161.018182 512.64 
L 166.090909 512.64 
L 166.090909 482.612908 
L 161.018182 482.612908 
z
" clip-path="url(#p05935bf400)" style="fill: #1f77b4"/>
   </g>
   <g id="patch_13">
    <path d="M 166.090909 512.64 
L 171.163636 512.64 
L 171.163636 480.13133 
L 166.090909 480.13133 
z
" clip-path="url(#p05935bf400)" style="fill: #1f77b4"/>
   </g>
   <g id="patch_14">
    <path d="M 171.163636 512.64 
L 176.236364 512.64 
L 176.236364 482.790164 
L 171.163636 482.790164 
z
" clip-path="url(#p05935bf400)" style="fill: #1f77b4"/>
   </g>
   <g id="patch_15">
    <path d="M 176.236364 512.64 
L 181.309091 512.64 
L 181.309091 488.42689 
L 176.236364 488.42689 
z
" clip-path="url(#p05935bf400)" style="fill: #1f77b4"/>
   </g>
   <g id="patch_16">
    <path d="M 181.309091 512.64 
L 186.381818 512.64 
L 186.381818 493.531851 
L 181.309091 493.531851 
z
" clip-path="url(#p05935bf400)" style="fill: #1f77b4"/>
   </g>
   <g id="patch_17">
    <path d="M 186.381818 512.64 
L 191.454545 512.64 
L 191.454545 494.13452 
L 186.381818 494.13452 
z
" clip-path="url(#p05935bf400)" style="fill: #1f77b4"/>
   </g>
   <g id="patch_18">
    <path d="M 191.454545 512.64 
L 196.527273 512.64 
L 196.527273 496.509744 
L 191.454545 496.509744 
z
" clip-path="url(#p05935bf400)" style="fill: #1f77b4"/>
   </g>
   <g id="patch_19">
    <path d="M 196.527273 512.64 
L 201.6 512.64 
L 201.6 503.351809 
L 196.527273 503.351809 
z
" clip-path="url(#p05935bf400)" style="fill: #1f77b4"/>
   </g>
   <g id="patch_20">
    <path d="M 201.6 512.64 
L 206.672727 512.64 
L 206.672727 508.634024 
L 201.6 508.634024 
z
" clip-path="url(#p05935bf400)" style="fill: #1f77b4"/>
   </g>
   <g id="patch_21">
    <path d="M 206.672727 512.64 
L 211.745455 512.64 
L 211.745455 509.874813 
L 206.672727 509.874813 
z
" clip-path="url(#p05935bf400)" style="fill: #1f77b4"/>
   </g>
   <g id="patch_22">
    <path d="M 211.745455 512.64 
L 216.818182 512.64 
L 216.818182 509.413949 
L 211.745455 509.413949 
z
" clip-path="url(#p05935bf400)" style="fill: #1f77b4"/>
   </g>
   <g id="patch_23">
    <path d="M 216.818182 512.64 
L 221.890909 512.64 
L 221.890909 505.585229 
L 216.818182 505.585229 
z
" clip-path="url(#p05935bf400)" style="fill: #1f77b4"/>
   </g>
   <g id="patch_24">
    <path d="M 221.890909 512.64 
L 226.963636 512.64 
L 226.963636 510.300227 
L 221.890909 510.300227 
z
" clip-path="url(#p05935bf400)" style="fill: #1f77b4"/>
   </g>
   <g id="patch_25">
    <path d="M 226.963636 512.64 
L 232.036364 512.64 
L 232.036364 511.009249 
L 226.963636 511.009249 
z
" clip-path="url(#p05935bf400)" style="fill: #1f77b4"/>
   </g>
   <g id="patch_26">
    <path d="M 232.036364 512.64 
L 237.109091 512.64 
L 237.109091 511.434662 
L 232.036364 511.434662 
z
" clip-path="url(#p05935bf400)" style="fill: #1f77b4"/>
   </g>
   <g id="patch_27">
    <path d="M 237.109091 512.64 
L 242.181818 512.64 
L 242.181818 511.399211 
L 237.109091 511.399211 
z
" clip-path="url(#p05935bf400)" style="fill: #1f77b4"/>
   </g>
   <g id="patch_28">
    <path d="M 242.181818 512.64 
L 247.254545 512.64 
L 247.254545 511.966429 
L 242.181818 511.966429 
z
" clip-path="url(#p05935bf400)" style="fill: #1f77b4"/>
   </g>
   <g id="patch_29">
    <path d="M 247.254545 512.64 
L 252.327273 512.64 
L 252.327273 511.966429 
L 247.254545 511.966429 
z
" clip-path="url(#p05935bf400)" style="fill: #1f77b4"/>
   </g>
   <g id="patch_30">
    <path d="M 252.327273 512.64 
L 257.4 512.64 
L 257.4 512.32094 
L 252.327273 512.32094 
z
" clip-path="url(#p05935bf400)" style="fill: #1f77b4"/>
   </g>
   <g id="patch_31">
    <path d="M 257.4 512.64 
L 262.472727 512.64 
L 262.472727 512.179136 
L 257.4 512.179136 
z
" clip-path="url(#p05935bf400)" style="fill: #1f77b4"/>
   </g>
   <g id="patch_32">
    <path d="M 262.472727 512.64 
L 267.545455 512.64 
L 267.545455 512.179136 
L 262.472727 512.179136 
z
" clip-path="url(#p05935bf400)" style="fill: #1f77b4"/>
   </g>
   <g id="patch_33">
    <path d="M 267.545455 512.64 
L 272.618182 512.64 
L 272.618182 512.00188 
L 267.545455 512.00188 
z
" clip-path="url(#p05935bf400)" style="fill: #1f77b4"/>
   </g>
   <g id="patch_34">
    <path d="M 272.618182 512.64 
L 277.690909 512.64 
L 277.690909 511.824624 
L 272.618182 511.824624 
z
" clip-path="url(#p05935bf400)" style="fill: #1f77b4"/>
   </g>
   <g id="patch_35">
    <path d="M 277.690909 512.64 
L 282.763636 512.64 
L 282.763636 511.860076 
L 277.690909 511.860076 
z
" clip-path="url(#p05935bf400)" style="fill: #1f77b4"/>
   </g>
   <g id="patch_36">
    <path d="M 282.763636 512.64 
L 287.836364 512.64 
L 287.836364 512.32094 
L 282.763636 512.32094 
z
" clip-path="url(#p05935bf400)" style="fill: #1f77b4"/>
   </g>
   <g id="patch_37">
    <path d="M 287.836364 512.64 
L 292.909091 512.64 
L 292.909091 511.68282 
L 287.836364 511.68282 
z
" clip-path="url(#p05935bf400)" style="fill: #1f77b4"/>
   </g>
   <g id="patch_38">
    <path d="M 292.909091 512.64 
L 297.981818 512.64 
L 297.981818 512.498196 
L 292.909091 512.498196 
z
" clip-path="url(#p05935bf400)" style="fill: #1f77b4"/>
   </g>
   <g id="patch_39">
    <path d="M 297.981818 512.64 
L 303.054545 512.64 
L 303.054545 512.32094 
L 297.981818 512.32094 
z
" clip-path="url(#p05935bf400)" style="fill: #1f77b4"/>
   </g>
   <g id="patch_40">
    <path d="M 303.054545 512.64 
L 308.127273 512.64 
L 308.127273 512.462744 
L 303.054545 512.462744 
z
" clip-path="url(#p05935bf400)" style="fill: #1f77b4"/>
   </g>
   <g id="patch_41">
    <path d="M 308.127273 512.64 
L 313.2 512.64 
L 313.2 512.356391 
L 308.127273 512.356391 
z
" clip-path="url(#p05935bf400)" style="fill: #1f77b4"/>
   </g>
   <g id="patch_42">
    <path d="M 313.2 512.64 
L 318.272727 512.64 
L 318.272727 512.427293 
L 313.2 512.427293 
z
" clip-path="url(#p05935bf400)" style="fill: #1f77b4"/>
   </g>
   <g id="patch_43">
    <path d="M 318.272727 512.64 
L 323.345455 512.64 
L 323.345455 512.356391 
L 318.272727 512.356391 
z
" clip-path="url(#p05935bf400)" style="fill: #1f77b4"/>
   </g>
   <g id="patch_44">
    <path d="M 323.345455 512.64 
L 328.418182 512.64 
L 328.418182 512.569098 
L 323.345455 512.569098 
z
" clip-path="url(#p05935bf400)" style="fill: #1f77b4"/>
   </g>
   <g id="patch_45">
    <path d="M 328.418182 512.64 
L 333.490909 512.64 
L 333.490909 512.32094 
L 328.418182 512.32094 
z
" clip-path="url(#p05935bf400)" style="fill: #1f77b4"/>
   </g>
   <g id="patch_46">
    <path d="M 333.490909 512.64 
L 338.563636 512.64 
L 338.563636 512.498196 
L 333.490909 512.498196 
z
" clip-path="url(#p05935bf400)" style="fill: #1f77b4"/>
   </g>
   <g id="patch_47">
    <path d="M 338.563636 512.64 
L 343.636364 512.64 
L 343.636364 512.32094 
L 338.563636 512.32094 
z
" clip-path="url(#p05935bf400)" style="fill: #1f77b4"/>
   </g>
   <g id="patch_48">
    <path d="M 343.636364 512.64 
L 348.709091 512.64 
L 348.709091 512.462744 
L 343.636364 512.462744 
z
" clip-path="url(#p05935bf400)" style="fill: #1f77b4"/>
   </g>
   <g id="patch_49">
    <path d="M 348.709091 512.64 
L 353.781818 512.64 
L 353.781818 511.611918 
L 348.709091 511.611918 
z
" clip-path="url(#p05935bf400)" style="fill: #1f77b4"/>
   </g>
   <g id="patch_50">
    <path d="M 353.781818 512.64 
L 358.854545 512.64 
L 358.854545 510.548384 
L 353.781818 510.548384 
z
" clip-path="url(#p05935bf400)" style="fill: #1f77b4"/>
   </g>
   <g id="patch_51">
    <path d="M 358.854545 512.64 
L 363.927273 512.64 
L 363.927273 512.462744 
L 358.854545 512.462744 
z
" clip-path="url(#p05935bf400)" style="fill: #1f77b4"/>
   </g>
   <g id="patch_52">
    <path d="M 363.927273 512.64 
L 369 512.64 
L 369 512.32094 
L 363.927273 512.32094 
z
" clip-path="url(#p05935bf400)" style="fill: #1f77b4"/>
   </g>
   <g id="patch_53">
    <path d="M 369 512.64 
L 374.072727 512.64 
L 374.072727 512.214587 
L 369 512.214587 
z
" clip-path="url(#p05935bf400)" style="fill: #1f77b4"/>
   </g>
   <g id="patch_54">
    <path d="M 374.072727 512.64 
L 379.145455 512.64 
L 379.145455 512.108233 
L 374.072727 512.108233 
z
" clip-path="url(#p05935bf400)" style="fill: #1f77b4"/>
   </g>
   <g id="patch_55">
    <path d="M 379.145455 512.64 
L 384.218182 512.64 
L 384.218182 512.250038 
L 379.145455 512.250038 
z
" clip-path="url(#p05935bf400)" style="fill: #1f77b4"/>
   </g>
   <g id="patch_56">
    <path d="M 384.218182 512.64 
L 389.290909 512.64 
L 389.290909 511.789173 
L 384.218182 511.789173 
z
" clip-path="url(#p05935bf400)" style="fill: #1f77b4"/>
   </g>
   <g id="patch_57">
    <path d="M 389.290909 512.64 
L 394.363636 512.64 
L 394.363636 511.576467 
L 389.290909 511.576467 
z
" clip-path="url(#p05935bf400)" style="fill: #1f77b4"/>
   </g>
   <g id="patch_58">
    <path d="M 394.363636 512.64 
L 399.436364 512.64 
L 399.436364 511.186504 
L 394.363636 511.186504 
z
" clip-path="url(#p05935bf400)" style="fill: #1f77b4"/>
   </g>
   <g id="patch_59">
    <path d="M 399.436364 512.64 
L 404.509091 512.64 
L 404.509091 510.512933 
L 399.436364 510.512933 
z
" clip-path="url(#p05935bf400)" style="fill: #1f77b4"/>
   </g>
   <g id="patch_60">
    <path d="M 404.509091 512.64 
L 409.581818 512.64 
L 409.581818 510.796542 
L 404.509091 510.796542 
z
" clip-path="url(#p05935bf400)" style="fill: #1f77b4"/>
   </g>
   <g id="patch_61">
    <path d="M 409.581818 512.64 
L 414.654545 512.64 
L 414.654545 509.945715 
L 409.581818 509.945715 
z
" clip-path="url(#p05935bf400)" style="fill: #1f77b4"/>
   </g>
   <g id="patch_62">
    <path d="M 414.654545 512.64 
L 419.727273 512.64 
L 419.727273 510.016618 
L 414.654545 510.016618 
z
" clip-path="url(#p05935bf400)" style="fill: #1f77b4"/>
   </g>
   <g id="patch_63">
    <path d="M 419.727273 512.64 
L 424.8 512.64 
L 424.8 509.201242 
L 419.727273 509.201242 
z
" clip-path="url(#p05935bf400)" style="fill: #1f77b4"/>
   </g>
   <g id="patch_64">
    <path d="M 424.8 512.64 
L 429.872727 512.64 
L 429.872727 509.4494 
L 424.8 509.4494 
z
" clip-path="url(#p05935bf400)" style="fill: #1f77b4"/>
   </g>
   <g id="patch_65">
    <path d="M 429.872727 512.64 
L 434.945455 512.64 
L 434.945455 509.803911 
L 429.872727 509.803911 
z
" clip-path="url(#p05935bf400)" style="fill: #1f77b4"/>
   </g>
   <g id="patch_66">
    <path d="M 434.945455 512.64 
L 440.018182 512.64 
L 440.018182 509.874813 
L 434.945455 509.874813 
z
" clip-path="url(#p05935bf400)" style="fill: #1f77b4"/>
   </g>
   <g id="patch_67">
    <path d="M 440.018182 512.64 
L 445.090909 512.64 
L 445.090909 502.855493 
L 440.018182 502.855493 
z
" clip-path="url(#p05935bf400)" style="fill: #1f77b4"/>
   </g>
   <g id="patch_68">
    <path d="M 445.090909 512.64 
L 450.163636 512.64 
L 450.163636 483.818246 
L 445.090909 483.818246 
z
" clip-path="url(#p05935bf400)" style="fill: #1f77b4"/>
   </g>
   <g id="patch_69">
    <path d="M 450.163636 512.64 
L 455.236364 512.64 
L 455.236364 503.989929 
L 450.163636 503.989929 
z
" clip-path="url(#p05935bf400)" style="fill: #1f77b4"/>
   </g>
   <g id="patch_70">
    <path d="M 455.236364 512.64 
L 460.309091 512.64 
L 460.309091 497.431473 
L 455.236364 497.431473 
z
" clip-path="url(#p05935bf400)" style="fill: #1f77b4"/>
   </g>
   <g id="patch_71">
    <path d="M 460.309091 512.64 
L 465.381818 512.64 
L 465.381818 499.948502 
L 460.309091 499.948502 
z
" clip-path="url(#p05935bf400)" style="fill: #1f77b4"/>
   </g>
   <g id="patch_72">
    <path d="M 465.381818 512.64 
L 470.454545 512.64 
L 470.454545 466.589005 
L 465.381818 466.589005 
z
" clip-path="url(#p05935bf400)" style="fill: #1f77b4"/>
   </g>
   <g id="patch_73">
    <path d="M 470.454545 512.64 
L 475.527273 512.64 
L 475.527273 495.552564 
L 470.454545 495.552564 
z
" clip-path="url(#p05935bf400)" style="fill: #1f77b4"/>
   </g>
   <g id="patch_74">
    <path d="M 475.527273 512.64 
L 480.6 512.64 
L 480.6 493.177339 
L 475.527273 493.177339 
z
" clip-path="url(#p05935bf400)" style="fill: #1f77b4"/>
   </g>
   <g id="patch_75">
    <path d="M 480.6 512.64 
L 485.672727 512.64 
L 485.672727 489.667679 
L 480.6 489.667679 
z
" clip-path="url(#p05935bf400)" style="fill: #1f77b4"/>
   </g>
   <g id="patch_76">
    <path d="M 485.672727 512.64 
L 490.745455 512.64 
L 490.745455 487.186102 
L 485.672727 487.186102 
z
" clip-path="url(#p05935bf400)" style="fill: #1f77b4"/>
   </g>
   <g id="patch_77">
    <path d="M 490.745455 512.64 
L 495.818182 512.64 
L 495.818182 483.534637 
L 490.745455 483.534637 
z
" clip-path="url(#p05935bf400)" style="fill: #1f77b4"/>
   </g>
   <g id="patch_78">
    <path d="M 495.818182 512.64 
L 500.890909 512.64 
L 500.890909 482.222946 
L 495.818182 482.222946 
z
" clip-path="url(#p05935bf400)" style="fill: #1f77b4"/>
   </g>
   <g id="patch_79">
    <path d="M 500.890909 512.64 
L 505.963636 512.64 
L 505.963636 481.159413 
L 500.890909 481.159413 
z
" clip-path="url(#p05935bf400)" style="fill: #1f77b4"/>
   </g>
   <g id="patch_80">
    <path d="M 505.963636 512.64 
L 511.036364 512.64 
L 511.036364 475.274528 
L 505.963636 475.274528 
z
" clip-path="url(#p05935bf400)" style="fill: #1f77b4"/>
   </g>
   <g id="patch_81">
    <path d="M 511.036364 512.64 
L 516.109091 512.64 
L 516.109091 454.429274 
L 511.036364 454.429274 
z
" clip-path="url(#p05935bf400)" style="fill: #1f77b4"/>
   </g>
   <g id="patch_82">
    <path d="M 516.109091 512.64 
L 521.181818 512.64 
L 521.181818 451.557734 
L 516.109091 451.557734 
z
" clip-path="url(#p05935bf400)" style="fill: #1f77b4"/>
   </g>
   <g id="patch_83">
    <path d="M 521.181818 512.64 
L 526.254545 512.64 
L 526.254545 446.878187 
L 521.181818 446.878187 
z
" clip-path="url(#p05935bf400)" style="fill: #1f77b4"/>
   </g>
   <g id="patch_84">
    <path d="M 526.254545 512.64 
L 531.327273 512.64 
L 531.327273 444.042098 
L 526.254545 444.042098 
z
" clip-path="url(#p05935bf400)" style="fill: #1f77b4"/>
   </g>
   <g id="patch_85">
    <path d="M 531.327273 512.64 
L 536.4 512.64 
L 536.4 435.49838 
L 531.327273 435.49838 
z
" clip-path="url(#p05935bf400)" style="fill: #1f77b4"/>
   </g>
   <g id="patch_86">
    <path d="M 536.4 512.64 
L 541.472727 512.64 
L 541.472727 440.60334 
L 536.4 440.60334 
z
" clip-path="url(#p05935bf400)" style="fill: #1f77b4"/>
   </g>
   <g id="patch_87">
    <path d="M 541.472727 512.64 
L 546.545455 512.64 
L 546.545455 427.131918 
L 541.472727 427.131918 
z
" clip-path="url(#p05935bf400)" style="fill: #1f77b4"/>
   </g>
   <g id="patch_88">
    <path d="M 546.545455 512.64 
L 551.618182 512.64 
L 551.618182 443.226723 
L 546.545455 443.226723 
z
" clip-path="url(#p05935bf400)" style="fill: #1f77b4"/>
   </g>
   <g id="patch_89">
    <path d="M 551.618182 512.64 
L 556.690909 512.64 
L 556.690909 459.07337 
L 551.618182 459.07337 
z
" clip-path="url(#p05935bf400)" style="fill: #1f77b4"/>
   </g>
   <g id="patch_90">
    <path d="M 556.690909 512.64 
L 561.763636 512.64 
L 561.763636 468.255208 
L 556.690909 468.255208 
z
" clip-path="url(#p05935bf400)" style="fill: #1f77b4"/>
   </g>
   <g id="patch_91">
    <path d="M 561.763636 512.64 
L 566.836364 512.64 
L 566.836364 489.454973 
L 561.763636 489.454973 
z
" clip-path="url(#p05935bf400)" style="fill: #1f77b4"/>
   </g>
   <g id="patch_92">
    <path d="M 566.836364 512.64 
L 571.909091 512.64 
L 571.909091 496.899706 
L 566.836364 496.899706 
z
" clip-path="url(#p05935bf400)" style="fill: #1f77b4"/>
   </g>
   <g id="patch_93">
    <path d="M 571.909091 512.64 
L 576.981818 512.64 
L 576.981818 502.961846 
L 571.909091 502.961846 
z
" clip-path="url(#p05935bf400)" style="fill: #1f77b4"/>
   </g>
   <g id="patch_94">
    <path d="M 576.981818 512.64 
L 582.054545 512.64 
L 582.054545 505.833386 
L 576.981818 505.833386 
z
" clip-path="url(#p05935bf400)" style="fill: #1f77b4"/>
   </g>
   <g id="patch_95">
    <path d="M 582.054545 512.64 
L 587.127273 512.64 
L 587.127273 507.818649 
L 582.054545 507.818649 
z
" clip-path="url(#p05935bf400)" style="fill: #1f77b4"/>
   </g>
   <g id="patch_96">
    <path d="M 587.127273 512.64 
L 592.2 512.64 
L 592.2 510.619287 
L 587.127273 510.619287 
z
" clip-path="url(#p05935bf400)" style="fill: #1f77b4"/>
   </g>
   <g id="patch_97">
    <path d="M 592.2 512.64 
L 597.272727 512.64 
L 597.272727 510.512933 
L 592.2 510.512933 
z
" clip-path="url(#p05935bf400)" style="fill: #1f77b4"/>
   </g>
   <g id="patch_98">
    <path d="M 597.272727 512.64 
L 602.345455 512.64 
L 602.345455 511.434662 
L 597.272727 511.434662 
z
" clip-path="url(#p05935bf400)" style="fill: #1f77b4"/>
   </g>
   <g id="patch_99">
    <path d="M 602.345455 512.64 
L 607.418182 512.64 
L 607.418182 511.68282 
L 602.345455 511.68282 
z
" clip-path="url(#p05935bf400)" style="fill: #1f77b4"/>
   </g>
   <g id="patch_100">
    <path d="M 607.418182 512.64 
L 612.490909 512.64 
L 612.490909 512.427293 
L 607.418182 512.427293 
z
" clip-path="url(#p05935bf400)" style="fill: #1f77b4"/>
   </g>
   <g id="patch_101">
    <path d="M 612.490909 512.64 
L 617.563636 512.64 
L 617.563636 512.533647 
L 612.490909 512.533647 
z
" clip-path="url(#p05935bf400)" style="fill: #1f77b4"/>
   </g>
   <g id="patch_102">
    <path d="M 617.563636 512.64 
L 622.636364 512.64 
L 622.636364 512.32094 
L 617.563636 512.32094 
z
" clip-path="url(#p05935bf400)" style="fill: #1f77b4"/>
   </g>
   <g id="matplotlib.axis_1">
    <g id="xtick_1">
     <g id="line2d_1">
      <defs>
       <path id="mb1788c6dd2" d="M 0 0 
L 0 3.5 
" style="stroke: #000000; stroke-width: 0.8"/>
      </defs>
      <g>
       <use xlink:href="#mb1788c6dd2" x="154.052893" y="512.64" style="stroke: #000000; stroke-width: 0.8"/>
      </g>
     </g>
     <g id="text_1">
      <!-- 1.5 -->
      <g transform="translate(146.10133 527.238438) scale(0.1 -0.1)">
       <defs>
        <path id="DejaVuSans-31" d="M 794 531 
L 1825 531 
L 1825 4091 
L 703 3866 
L 703 4441 
L 1819 4666 
L 2450 4666 
L 2450 531 
L 3481 531 
L 3481 0 
L 794 0 
L 794 531 
z
" transform="scale(0.015625)"/>
        <path id="DejaVuSans-2e" d="M 684 794 
L 1344 794 
L 1344 0 
L 684 0 
L 684 794 
z
" transform="scale(0.015625)"/>
        <path id="DejaVuSans-35" d="M 691 4666 
L 3169 4666 
L 3169 4134 
L 1269 4134 
L 1269 2991 
Q 1406 3038 1543 3061 
Q 1681 3084 1819 3084 
Q 2600 3084 3056 2656 
Q 3513 2228 3513 1497 
Q 3513 744 3044 326 
Q 2575 -91 1722 -91 
Q 1428 -91 1123 -41 
Q 819 9 494 109 
L 494 744 
Q 775 591 1075 516 
Q 1375 441 1709 441 
Q 2250 441 2565 725 
Q 2881 1009 2881 1497 
Q 2881 1984 2565 2268 
Q 2250 2553 1709 2553 
Q 1456 2553 1204 2497 
Q 953 2441 691 2322 
L 691 4666 
z
" transform="scale(0.015625)"/>
       </defs>
       <use xlink:href="#DejaVuSans-31"/>
       <use xlink:href="#DejaVuSans-2e" transform="translate(63.623047 0)"/>
       <use xlink:href="#DejaVuSans-35" transform="translate(95.410156 0)"/>
      </g>
     </g>
    </g>
    <g id="xtick_2">
     <g id="line2d_2">
      <g>
       <use xlink:href="#mb1788c6dd2" x="243.37123" y="512.64" style="stroke: #000000; stroke-width: 0.8"/>
      </g>
     </g>
     <g id="text_2">
      <!-- 2.0 -->
      <g transform="translate(235.419668 527.238438) scale(0.1 -0.1)">
       <defs>
        <path id="DejaVuSans-32" d="M 1228 531 
L 3431 531 
L 3431 0 
L 469 0 
L 469 531 
Q 828 903 1448 1529 
Q 2069 2156 2228 2338 
Q 2531 2678 2651 2914 
Q 2772 3150 2772 3378 
Q 2772 3750 2511 3984 
Q 2250 4219 1831 4219 
Q 1534 4219 1204 4116 
Q 875 4013 500 3803 
L 500 4441 
Q 881 4594 1212 4672 
Q 1544 4750 1819 4750 
Q 2544 4750 2975 4387 
Q 3406 4025 3406 3419 
Q 3406 3131 3298 2873 
Q 3191 2616 2906 2266 
Q 2828 2175 2409 1742 
Q 1991 1309 1228 531 
z
" transform="scale(0.015625)"/>
        <path id="DejaVuSans-30" d="M 2034 4250 
Q 1547 4250 1301 3770 
Q 1056 3291 1056 2328 
Q 1056 1369 1301 889 
Q 1547 409 2034 409 
Q 2525 409 2770 889 
Q 3016 1369 3016 2328 
Q 3016 3291 2770 3770 
Q 2525 4250 2034 4250 
z
M 2034 4750 
Q 2819 4750 3233 4129 
Q 3647 3509 3647 2328 
Q 3647 1150 3233 529 
Q 2819 -91 2034 -91 
Q 1250 -91 836 529 
Q 422 1150 422 2328 
Q 422 3509 836 4129 
Q 1250 4750 2034 4750 
z
" transform="scale(0.015625)"/>
       </defs>
       <use xlink:href="#DejaVuSans-32"/>
       <use xlink:href="#DejaVuSans-2e" transform="translate(63.623047 0)"/>
       <use xlink:href="#DejaVuSans-30" transform="translate(95.410156 0)"/>
      </g>
     </g>
    </g>
    <g id="xtick_3">
     <g id="line2d_3">
      <g>
       <use xlink:href="#mb1788c6dd2" x="332.689568" y="512.64" style="stroke: #000000; stroke-width: 0.8"/>
      </g>
     </g>
     <g id="text_3">
      <!-- 2.5 -->
      <g transform="translate(324.738006 527.238438) scale(0.1 -0.1)">
       <use xlink:href="#DejaVuSans-32"/>
       <use xlink:href="#DejaVuSans-2e" transform="translate(63.623047 0)"/>
       <use xlink:href="#DejaVuSans-35" transform="translate(95.410156 0)"/>
      </g>
     </g>
    </g>
    <g id="xtick_4">
     <g id="line2d_4">
      <g>
       <use xlink:href="#mb1788c6dd2" x="422.007906" y="512.64" style="stroke: #000000; stroke-width: 0.8"/>
      </g>
     </g>
     <g id="text_4">
      <!-- 3.0 -->
      <g transform="translate(414.056343 527.238438) scale(0.1 -0.1)">
       <defs>
        <path id="DejaVuSans-33" d="M 2597 2516 
Q 3050 2419 3304 2112 
Q 3559 1806 3559 1356 
Q 3559 666 3084 287 
Q 2609 -91 1734 -91 
Q 1441 -91 1130 -33 
Q 819 25 488 141 
L 488 750 
Q 750 597 1062 519 
Q 1375 441 1716 441 
Q 2309 441 2620 675 
Q 2931 909 2931 1356 
Q 2931 1769 2642 2001 
Q 2353 2234 1838 2234 
L 1294 2234 
L 1294 2753 
L 1863 2753 
Q 2328 2753 2575 2939 
Q 2822 3125 2822 3475 
Q 2822 3834 2567 4026 
Q 2313 4219 1838 4219 
Q 1578 4219 1281 4162 
Q 984 4106 628 3988 
L 628 4550 
Q 988 4650 1302 4700 
Q 1616 4750 1894 4750 
Q 2613 4750 3031 4423 
Q 3450 4097 3450 3541 
Q 3450 3153 3228 2886 
Q 3006 2619 2597 2516 
z
" transform="scale(0.015625)"/>
       </defs>
       <use xlink:href="#DejaVuSans-33"/>
       <use xlink:href="#DejaVuSans-2e" transform="translate(63.623047 0)"/>
       <use xlink:href="#DejaVuSans-30" transform="translate(95.410156 0)"/>
      </g>
     </g>
    </g>
    <g id="xtick_5">
     <g id="line2d_5">
      <g>
       <use xlink:href="#mb1788c6dd2" x="511.326243" y="512.64" style="stroke: #000000; stroke-width: 0.8"/>
      </g>
     </g>
     <g id="text_5">
      <!-- 3.5 -->
      <g transform="translate(503.374681 527.238438) scale(0.1 -0.1)">
       <use xlink:href="#DejaVuSans-33"/>
       <use xlink:href="#DejaVuSans-2e" transform="translate(63.623047 0)"/>
       <use xlink:href="#DejaVuSans-35" transform="translate(95.410156 0)"/>
      </g>
     </g>
    </g>
    <g id="xtick_6">
     <g id="line2d_6">
      <g>
       <use xlink:href="#mb1788c6dd2" x="600.644581" y="512.64" style="stroke: #000000; stroke-width: 0.8"/>
      </g>
     </g>
     <g id="text_6">
      <!-- 4.0 -->
      <g transform="translate(592.693019 527.238438) scale(0.1 -0.1)">
       <defs>
        <path id="DejaVuSans-34" d="M 2419 4116 
L 825 1625 
L 2419 1625 
L 2419 4116 
z
M 2253 4666 
L 3047 4666 
L 3047 1625 
L 3713 1625 
L 3713 1100 
L 3047 1100 
L 3047 0 
L 2419 0 
L 2419 1100 
L 313 1100 
L 313 1709 
L 2253 4666 
z
" transform="scale(0.015625)"/>
       </defs>
       <use xlink:href="#DejaVuSans-34"/>
       <use xlink:href="#DejaVuSans-2e" transform="translate(63.623047 0)"/>
       <use xlink:href="#DejaVuSans-30" transform="translate(95.410156 0)"/>
      </g>
     </g>
    </g>
   </g>
   <g id="matplotlib.axis_2">
    <g id="ytick_1">
     <g id="line2d_7">
      <defs>
       <path id="mf16593c454" d="M 0 0 
L -3.5 0 
" style="stroke: #000000; stroke-width: 0.8"/>
      </defs>
      <g>
       <use xlink:href="#mf16593c454" x="90" y="512.64" style="stroke: #000000; stroke-width: 0.8"/>
      </g>
     </g>
     <g id="text_7">
      <!-- 0 -->
      <g transform="translate(76.6375 516.439219) scale(0.1 -0.1)">
       <use xlink:href="#DejaVuSans-30"/>
      </g>
     </g>
    </g>
    <g id="ytick_2">
     <g id="line2d_8">
      <g>
       <use xlink:href="#mf16593c454" x="90" y="441.737776" style="stroke: #000000; stroke-width: 0.8"/>
      </g>
     </g>
     <g id="text_8">
      <!-- 2000 -->
      <g transform="translate(57.55 445.536995) scale(0.1 -0.1)">
       <use xlink:href="#DejaVuSans-32"/>
       <use xlink:href="#DejaVuSans-30" transform="translate(63.623047 0)"/>
       <use xlink:href="#DejaVuSans-30" transform="translate(127.246094 0)"/>
       <use xlink:href="#DejaVuSans-30" transform="translate(190.869141 0)"/>
      </g>
     </g>
    </g>
    <g id="ytick_3">
     <g id="line2d_9">
      <g>
       <use xlink:href="#mf16593c454" x="90" y="370.835552" style="stroke: #000000; stroke-width: 0.8"/>
      </g>
     </g>
     <g id="text_9">
      <!-- 4000 -->
      <g transform="translate(57.55 374.634771) scale(0.1 -0.1)">
       <use xlink:href="#DejaVuSans-34"/>
       <use xlink:href="#DejaVuSans-30" transform="translate(63.623047 0)"/>
       <use xlink:href="#DejaVuSans-30" transform="translate(127.246094 0)"/>
       <use xlink:href="#DejaVuSans-30" transform="translate(190.869141 0)"/>
      </g>
     </g>
    </g>
    <g id="ytick_4">
     <g id="line2d_10">
      <g>
       <use xlink:href="#mf16593c454" x="90" y="299.933328" style="stroke: #000000; stroke-width: 0.8"/>
      </g>
     </g>
     <g id="text_10">
      <!-- 6000 -->
      <g transform="translate(57.55 303.732546) scale(0.1 -0.1)">
       <defs>
        <path id="DejaVuSans-36" d="M 2113 2584 
Q 1688 2584 1439 2293 
Q 1191 2003 1191 1497 
Q 1191 994 1439 701 
Q 1688 409 2113 409 
Q 2538 409 2786 701 
Q 3034 994 3034 1497 
Q 3034 2003 2786 2293 
Q 2538 2584 2113 2584 
z
M 3366 4563 
L 3366 3988 
Q 3128 4100 2886 4159 
Q 2644 4219 2406 4219 
Q 1781 4219 1451 3797 
Q 1122 3375 1075 2522 
Q 1259 2794 1537 2939 
Q 1816 3084 2150 3084 
Q 2853 3084 3261 2657 
Q 3669 2231 3669 1497 
Q 3669 778 3244 343 
Q 2819 -91 2113 -91 
Q 1303 -91 875 529 
Q 447 1150 447 2328 
Q 447 3434 972 4092 
Q 1497 4750 2381 4750 
Q 2619 4750 2861 4703 
Q 3103 4656 3366 4563 
z
" transform="scale(0.015625)"/>
       </defs>
       <use xlink:href="#DejaVuSans-36"/>
       <use xlink:href="#DejaVuSans-30" transform="translate(63.623047 0)"/>
       <use xlink:href="#DejaVuSans-30" transform="translate(127.246094 0)"/>
       <use xlink:href="#DejaVuSans-30" transform="translate(190.869141 0)"/>
      </g>
     </g>
    </g>
    <g id="ytick_5">
     <g id="line2d_11">
      <g>
       <use xlink:href="#mf16593c454" x="90" y="229.031104" style="stroke: #000000; stroke-width: 0.8"/>
      </g>
     </g>
     <g id="text_11">
      <!-- 8000 -->
      <g transform="translate(57.55 232.830322) scale(0.1 -0.1)">
       <defs>
        <path id="DejaVuSans-38" d="M 2034 2216 
Q 1584 2216 1326 1975 
Q 1069 1734 1069 1313 
Q 1069 891 1326 650 
Q 1584 409 2034 409 
Q 2484 409 2743 651 
Q 3003 894 3003 1313 
Q 3003 1734 2745 1975 
Q 2488 2216 2034 2216 
z
M 1403 2484 
Q 997 2584 770 2862 
Q 544 3141 544 3541 
Q 544 4100 942 4425 
Q 1341 4750 2034 4750 
Q 2731 4750 3128 4425 
Q 3525 4100 3525 3541 
Q 3525 3141 3298 2862 
Q 3072 2584 2669 2484 
Q 3125 2378 3379 2068 
Q 3634 1759 3634 1313 
Q 3634 634 3220 271 
Q 2806 -91 2034 -91 
Q 1263 -91 848 271 
Q 434 634 434 1313 
Q 434 1759 690 2068 
Q 947 2378 1403 2484 
z
M 1172 3481 
Q 1172 3119 1398 2916 
Q 1625 2713 2034 2713 
Q 2441 2713 2670 2916 
Q 2900 3119 2900 3481 
Q 2900 3844 2670 4047 
Q 2441 4250 2034 4250 
Q 1625 4250 1398 4047 
Q 1172 3844 1172 3481 
z
" transform="scale(0.015625)"/>
       </defs>
       <use xlink:href="#DejaVuSans-38"/>
       <use xlink:href="#DejaVuSans-30" transform="translate(63.623047 0)"/>
       <use xlink:href="#DejaVuSans-30" transform="translate(127.246094 0)"/>
       <use xlink:href="#DejaVuSans-30" transform="translate(190.869141 0)"/>
      </g>
     </g>
    </g>
    <g id="ytick_6">
     <g id="line2d_12">
      <g>
       <use xlink:href="#mf16593c454" x="90" y="158.12888" style="stroke: #000000; stroke-width: 0.8"/>
      </g>
     </g>
     <g id="text_12">
      <!-- 10000 -->
      <g transform="translate(51.1875 161.928098) scale(0.1 -0.1)">
       <use xlink:href="#DejaVuSans-31"/>
       <use xlink:href="#DejaVuSans-30" transform="translate(63.623047 0)"/>
       <use xlink:href="#DejaVuSans-30" transform="translate(127.246094 0)"/>
       <use xlink:href="#DejaVuSans-30" transform="translate(190.869141 0)"/>
       <use xlink:href="#DejaVuSans-30" transform="translate(254.492188 0)"/>
      </g>
     </g>
    </g>
    <g id="ytick_7">
     <g id="line2d_13">
      <g>
       <use xlink:href="#mf16593c454" x="90" y="87.226655" style="stroke: #000000; stroke-width: 0.8"/>
      </g>
     </g>
     <g id="text_13">
      <!-- 12000 -->
      <g transform="translate(51.1875 91.025874) scale(0.1 -0.1)">
       <use xlink:href="#DejaVuSans-31"/>
       <use xlink:href="#DejaVuSans-32" transform="translate(63.623047 0)"/>
       <use xlink:href="#DejaVuSans-30" transform="translate(127.246094 0)"/>
       <use xlink:href="#DejaVuSans-30" transform="translate(190.869141 0)"/>
       <use xlink:href="#DejaVuSans-30" transform="translate(254.492188 0)"/>
      </g>
     </g>
    </g>
   </g>
   <g id="patch_103">
    <path d="M 90 512.64 
L 90 69.12 
" style="fill: none; stroke: #000000; stroke-width: 0.8; stroke-linejoin: miter; stroke-linecap: square"/>
   </g>
   <g id="patch_104">
    <path d="M 648 512.64 
L 648 69.12 
" style="fill: none; stroke: #000000; stroke-width: 0.8; stroke-linejoin: miter; stroke-linecap: square"/>
   </g>
   <g id="patch_105">
    <path d="M 90 512.64 
L 648 512.64 
" style="fill: none; stroke: #000000; stroke-width: 0.8; stroke-linejoin: miter; stroke-linecap: square"/>
   </g>
   <g id="patch_106">
    <path d="M 90 69.12 
L 648 69.12 
" style="fill: none; stroke: #000000; stroke-width: 0.8; stroke-linejoin: miter; stroke-linecap: square"/>
   </g>
   <g id="text_14">
    <!-- histogram of fluorescence -->
    <g transform="translate(290.80125 63.12) scale(0.12 -0.12)">
     <defs>
      <path id="DejaVuSans-68" d="M 3513 2113 
L 3513 0 
L 2938 0 
L 2938 2094 
Q 2938 2591 2744 2837 
Q 2550 3084 2163 3084 
Q 1697 3084 1428 2787 
Q 1159 2491 1159 1978 
L 1159 0 
L 581 0 
L 581 4863 
L 1159 4863 
L 1159 2956 
Q 1366 3272 1645 3428 
Q 1925 3584 2291 3584 
Q 2894 3584 3203 3211 
Q 3513 2838 3513 2113 
z
" transform="scale(0.015625)"/>
      <path id="DejaVuSans-69" d="M 603 3500 
L 1178 3500 
L 1178 0 
L 603 0 
L 603 3500 
z
M 603 4863 
L 1178 4863 
L 1178 4134 
L 603 4134 
L 603 4863 
z
" transform="scale(0.015625)"/>
      <path id="DejaVuSans-73" d="M 2834 3397 
L 2834 2853 
Q 2591 2978 2328 3040 
Q 2066 3103 1784 3103 
Q 1356 3103 1142 2972 
Q 928 2841 928 2578 
Q 928 2378 1081 2264 
Q 1234 2150 1697 2047 
L 1894 2003 
Q 2506 1872 2764 1633 
Q 3022 1394 3022 966 
Q 3022 478 2636 193 
Q 2250 -91 1575 -91 
Q 1294 -91 989 -36 
Q 684 19 347 128 
L 347 722 
Q 666 556 975 473 
Q 1284 391 1588 391 
Q 1994 391 2212 530 
Q 2431 669 2431 922 
Q 2431 1156 2273 1281 
Q 2116 1406 1581 1522 
L 1381 1569 
Q 847 1681 609 1914 
Q 372 2147 372 2553 
Q 372 3047 722 3315 
Q 1072 3584 1716 3584 
Q 2034 3584 2315 3537 
Q 2597 3491 2834 3397 
z
" transform="scale(0.015625)"/>
      <path id="DejaVuSans-74" d="M 1172 4494 
L 1172 3500 
L 2356 3500 
L 2356 3053 
L 1172 3053 
L 1172 1153 
Q 1172 725 1289 603 
Q 1406 481 1766 481 
L 2356 481 
L 2356 0 
L 1766 0 
Q 1100 0 847 248 
Q 594 497 594 1153 
L 594 3053 
L 172 3053 
L 172 3500 
L 594 3500 
L 594 4494 
L 1172 4494 
z
" transform="scale(0.015625)"/>
      <path id="DejaVuSans-6f" d="M 1959 3097 
Q 1497 3097 1228 2736 
Q 959 2375 959 1747 
Q 959 1119 1226 758 
Q 1494 397 1959 397 
Q 2419 397 2687 759 
Q 2956 1122 2956 1747 
Q 2956 2369 2687 2733 
Q 2419 3097 1959 3097 
z
M 1959 3584 
Q 2709 3584 3137 3096 
Q 3566 2609 3566 1747 
Q 3566 888 3137 398 
Q 2709 -91 1959 -91 
Q 1206 -91 779 398 
Q 353 888 353 1747 
Q 353 2609 779 3096 
Q 1206 3584 1959 3584 
z
" transform="scale(0.015625)"/>
      <path id="DejaVuSans-67" d="M 2906 1791 
Q 2906 2416 2648 2759 
Q 2391 3103 1925 3103 
Q 1463 3103 1205 2759 
Q 947 2416 947 1791 
Q 947 1169 1205 825 
Q 1463 481 1925 481 
Q 2391 481 2648 825 
Q 2906 1169 2906 1791 
z
M 3481 434 
Q 3481 -459 3084 -895 
Q 2688 -1331 1869 -1331 
Q 1566 -1331 1297 -1286 
Q 1028 -1241 775 -1147 
L 775 -588 
Q 1028 -725 1275 -790 
Q 1522 -856 1778 -856 
Q 2344 -856 2625 -561 
Q 2906 -266 2906 331 
L 2906 616 
Q 2728 306 2450 153 
Q 2172 0 1784 0 
Q 1141 0 747 490 
Q 353 981 353 1791 
Q 353 2603 747 3093 
Q 1141 3584 1784 3584 
Q 2172 3584 2450 3431 
Q 2728 3278 2906 2969 
L 2906 3500 
L 3481 3500 
L 3481 434 
z
" transform="scale(0.015625)"/>
      <path id="DejaVuSans-72" d="M 2631 2963 
Q 2534 3019 2420 3045 
Q 2306 3072 2169 3072 
Q 1681 3072 1420 2755 
Q 1159 2438 1159 1844 
L 1159 0 
L 581 0 
L 581 3500 
L 1159 3500 
L 1159 2956 
Q 1341 3275 1631 3429 
Q 1922 3584 2338 3584 
Q 2397 3584 2469 3576 
Q 2541 3569 2628 3553 
L 2631 2963 
z
" transform="scale(0.015625)"/>
      <path id="DejaVuSans-61" d="M 2194 1759 
Q 1497 1759 1228 1600 
Q 959 1441 959 1056 
Q 959 750 1161 570 
Q 1363 391 1709 391 
Q 2188 391 2477 730 
Q 2766 1069 2766 1631 
L 2766 1759 
L 2194 1759 
z
M 3341 1997 
L 3341 0 
L 2766 0 
L 2766 531 
Q 2569 213 2275 61 
Q 1981 -91 1556 -91 
Q 1019 -91 701 211 
Q 384 513 384 1019 
Q 384 1609 779 1909 
Q 1175 2209 1959 2209 
L 2766 2209 
L 2766 2266 
Q 2766 2663 2505 2880 
Q 2244 3097 1772 3097 
Q 1472 3097 1187 3025 
Q 903 2953 641 2809 
L 641 3341 
Q 956 3463 1253 3523 
Q 1550 3584 1831 3584 
Q 2591 3584 2966 3190 
Q 3341 2797 3341 1997 
z
" transform="scale(0.015625)"/>
      <path id="DejaVuSans-6d" d="M 3328 2828 
Q 3544 3216 3844 3400 
Q 4144 3584 4550 3584 
Q 5097 3584 5394 3201 
Q 5691 2819 5691 2113 
L 5691 0 
L 5113 0 
L 5113 2094 
Q 5113 2597 4934 2840 
Q 4756 3084 4391 3084 
Q 3944 3084 3684 2787 
Q 3425 2491 3425 1978 
L 3425 0 
L 2847 0 
L 2847 2094 
Q 2847 2600 2669 2842 
Q 2491 3084 2119 3084 
Q 1678 3084 1418 2786 
Q 1159 2488 1159 1978 
L 1159 0 
L 581 0 
L 581 3500 
L 1159 3500 
L 1159 2956 
Q 1356 3278 1631 3431 
Q 1906 3584 2284 3584 
Q 2666 3584 2933 3390 
Q 3200 3197 3328 2828 
z
" transform="scale(0.015625)"/>
      <path id="DejaVuSans-20" transform="scale(0.015625)"/>
      <path id="DejaVuSans-66" d="M 2375 4863 
L 2375 4384 
L 1825 4384 
Q 1516 4384 1395 4259 
Q 1275 4134 1275 3809 
L 1275 3500 
L 2222 3500 
L 2222 3053 
L 1275 3053 
L 1275 0 
L 697 0 
L 697 3053 
L 147 3053 
L 147 3500 
L 697 3500 
L 697 3744 
Q 697 4328 969 4595 
Q 1241 4863 1831 4863 
L 2375 4863 
z
" transform="scale(0.015625)"/>
      <path id="DejaVuSans-6c" d="M 603 4863 
L 1178 4863 
L 1178 0 
L 603 0 
L 603 4863 
z
" transform="scale(0.015625)"/>
      <path id="DejaVuSans-75" d="M 544 1381 
L 544 3500 
L 1119 3500 
L 1119 1403 
Q 1119 906 1312 657 
Q 1506 409 1894 409 
Q 2359 409 2629 706 
Q 2900 1003 2900 1516 
L 2900 3500 
L 3475 3500 
L 3475 0 
L 2900 0 
L 2900 538 
Q 2691 219 2414 64 
Q 2138 -91 1772 -91 
Q 1169 -91 856 284 
Q 544 659 544 1381 
z
M 1991 3584 
L 1991 3584 
z
" transform="scale(0.015625)"/>
      <path id="DejaVuSans-65" d="M 3597 1894 
L 3597 1613 
L 953 1613 
Q 991 1019 1311 708 
Q 1631 397 2203 397 
Q 2534 397 2845 478 
Q 3156 559 3463 722 
L 3463 178 
Q 3153 47 2828 -22 
Q 2503 -91 2169 -91 
Q 1331 -91 842 396 
Q 353 884 353 1716 
Q 353 2575 817 3079 
Q 1281 3584 2069 3584 
Q 2775 3584 3186 3129 
Q 3597 2675 3597 1894 
z
M 3022 2063 
Q 3016 2534 2758 2815 
Q 2500 3097 2075 3097 
Q 1594 3097 1305 2825 
Q 1016 2553 972 2059 
L 3022 2063 
z
" transform="scale(0.015625)"/>
      <path id="DejaVuSans-63" d="M 3122 3366 
L 3122 2828 
Q 2878 2963 2633 3030 
Q 2388 3097 2138 3097 
Q 1578 3097 1268 2742 
Q 959 2388 959 1747 
Q 959 1106 1268 751 
Q 1578 397 2138 397 
Q 2388 397 2633 464 
Q 2878 531 3122 666 
L 3122 134 
Q 2881 22 2623 -34 
Q 2366 -91 2075 -91 
Q 1284 -91 818 406 
Q 353 903 353 1747 
Q 353 2603 823 3093 
Q 1294 3584 2113 3584 
Q 2378 3584 2631 3529 
Q 2884 3475 3122 3366 
z
" transform="scale(0.015625)"/>
      <path id="DejaVuSans-6e" d="M 3513 2113 
L 3513 0 
L 2938 0 
L 2938 2094 
Q 2938 2591 2744 2837 
Q 2550 3084 2163 3084 
Q 1697 3084 1428 2787 
Q 1159 2491 1159 1978 
L 1159 0 
L 581 0 
L 581 3500 
L 1159 3500 
L 1159 2956 
Q 1366 3272 1645 3428 
Q 1925 3584 2291 3584 
Q 2894 3584 3203 3211 
Q 3513 2838 3513 2113 
z
" transform="scale(0.015625)"/>
     </defs>
     <use xlink:href="#DejaVuSans-68"/>
     <use xlink:href="#DejaVuSans-69" transform="translate(63.378906 0)"/>
     <use xlink:href="#DejaVuSans-73" transform="translate(91.162109 0)"/>
     <use xlink:href="#DejaVuSans-74" transform="translate(143.261719 0)"/>
     <use xlink:href="#DejaVuSans-6f" transform="translate(182.470703 0)"/>
     <use xlink:href="#DejaVuSans-67" transform="translate(243.652344 0)"/>
     <use xlink:href="#DejaVuSans-72" transform="translate(307.128906 0)"/>
     <use xlink:href="#DejaVuSans-61" transform="translate(348.242188 0)"/>
     <use xlink:href="#DejaVuSans-6d" transform="translate(409.521484 0)"/>
     <use xlink:href="#DejaVuSans-20" transform="translate(506.933594 0)"/>
     <use xlink:href="#DejaVuSans-6f" transform="translate(538.720703 0)"/>
     <use xlink:href="#DejaVuSans-66" transform="translate(599.902344 0)"/>
     <use xlink:href="#DejaVuSans-20" transform="translate(635.107422 0)"/>
     <use xlink:href="#DejaVuSans-66" transform="translate(666.894531 0)"/>
     <use xlink:href="#DejaVuSans-6c" transform="translate(702.099609 0)"/>
     <use xlink:href="#DejaVuSans-75" transform="translate(729.882812 0)"/>
     <use xlink:href="#DejaVuSans-6f" transform="translate(793.261719 0)"/>
     <use xlink:href="#DejaVuSans-72" transform="translate(854.443359 0)"/>
     <use xlink:href="#DejaVuSans-65" transform="translate(893.306641 0)"/>
     <use xlink:href="#DejaVuSans-73" transform="translate(954.830078 0)"/>
     <use xlink:href="#DejaVuSans-63" transform="translate(1006.929688 0)"/>
     <use xlink:href="#DejaVuSans-65" transform="translate(1061.910156 0)"/>
     <use xlink:href="#DejaVuSans-6e" transform="translate(1123.433594 0)"/>
     <use xlink:href="#DejaVuSans-63" transform="translate(1186.8125 0)"/>
     <use xlink:href="#DejaVuSans-65" transform="translate(1241.792969 0)"/>
    </g>
   </g>
  </g>
 </g>
 <defs>
  <clipPath id="p05935bf400">
   <rect x="90" y="69.12" width="558" height="443.52"/>
  </clipPath>
 </defs>
</svg>
